<?xml version="1.0" encoding="UTF-8"?>
<svg xmlns="http://www.w3.org/2000/svg" width="24px"
    height="24px" viewBox="0 0 24 24" version="1.1">
    <g id="surface1">
        <path style=" stroke:none;fill-rule:nonzero;fill:rgb(100%,100%,100%);fill-opacity:1;"
            d="M 4.582031 4.117188 L 19.402344 4.117188 L 19.402344 17.585938 L 4.582031 17.585938 Z M 4.582031 4.117188 " />
        <path
            style=" stroke:none;fill-rule:evenodd;fill:rgb(90.980392%,25.490196%,25.882353%);fill-opacity:1;"
            d="M 23.992188 12 C 23.992188 18.617188 18.625 23.984375 12 23.984375 C 5.378906 23.984375 0.0078125 18.617188 0.0078125 12 C 0.0078125 5.382812 5.378906 0.015625 12 0.015625 C 18.625 0.015625 23.992188 5.382812 23.992188 12 Z M 8.601562 16.769531 L 6.273438 16.769531 C 5.785156 16.769531 5.542969 16.769531 5.398438 16.675781 C 5.238281 16.570312 5.140625 16.402344 5.128906 16.210938 C 5.121094 16.039062 5.242188 15.828125 5.480469 15.402344 L 11.226562 5.28125 C 11.472656 4.851562 11.597656 4.636719 11.753906 4.558594 C 11.921875 4.472656 12.121094 4.472656 12.289062 4.558594 C 12.445312 4.636719 12.570312 4.851562 12.8125 5.28125 L 13.996094 7.339844 L 14 7.351562 C 14.265625 7.8125 14.398438 8.046875 14.457031 8.292969 C 14.523438 8.558594 14.523438 8.84375 14.457031 9.109375 C 14.398438 9.359375 14.265625 9.59375 13.996094 10.0625 L 10.980469 15.394531 L 10.972656 15.40625 C 10.707031 15.871094 10.570312 16.109375 10.382812 16.285156 C 10.179688 16.480469 9.9375 16.621094 9.667969 16.703125 C 9.421875 16.769531 9.148438 16.769531 8.601562 16.769531 Z M 14.480469 16.769531 L 17.8125 16.769531 C 18.304688 16.769531 18.554688 16.769531 18.699219 16.671875 C 18.859375 16.570312 18.960938 16.394531 18.96875 16.207031 C 18.976562 16.039062 18.859375 15.835938 18.628906 15.4375 C 18.621094 15.421875 18.613281 15.410156 18.601562 15.394531 L 16.933594 12.539062 L 16.914062 12.507812 C 16.679688 12.109375 16.5625 11.910156 16.410156 11.832031 C 16.242188 11.746094 16.042969 11.746094 15.875 11.832031 C 15.722656 11.910156 15.597656 12.121094 15.355469 12.542969 L 13.691406 15.398438 L 13.683594 15.40625 C 13.441406 15.828125 13.320312 16.039062 13.328125 16.210938 C 13.339844 16.398438 13.4375 16.570312 13.59375 16.675781 C 13.738281 16.769531 13.988281 16.769531 14.480469 16.769531 Z M 14.480469 16.769531 " />
    </g>
</svg>