<svg width="24" height="24" viewBox="0 0 24 24" fill="none" xmlns="http://www.w3.org/2000/svg">
    <path
        d="M22.427 6.04998L21.9093 5.14104C21.8687 5.0698 21.8121 5.0089 21.7441 4.96311C21.6761 4.91731 21.5984 4.88786 21.5171 4.87703C21.4358 4.86621 21.3531 4.87431 21.2755 4.90071C21.1978 4.92712 21.1273 4.9711 21.0695 5.02923L19.8787 6.21872C19.7917 6.30619 19.7375 6.42106 19.7254 6.54388C19.7134 6.66669 19.7441 6.78991 19.8125 6.89266C20.2467 7.55602 20.5946 8.27195 20.8479 9.02318C21.3212 10.4275 21.4533 11.9243 21.2335 13.3898C21.0136 14.8553 20.448 16.2474 19.5835 17.4511C18.719 18.6549 17.5803 19.6356 16.2616 20.3122C14.943 20.9889 13.4821 21.342 11.9999 21.3425C10.4741 21.3467 8.97086 20.9736 7.62409 20.2565L9.63805 18.242C10.886 18.7139 12.2469 18.8007 13.5447 18.4912C14.8426 18.1818 16.0177 17.4902 16.9183 16.506C17.8189 15.5217 18.4036 14.2901 18.5967 12.9701C18.7897 11.6502 18.5824 10.3027 18.0014 9.10186C17.9646 9.02496 17.9098 8.95803 17.8417 8.90669C17.7736 8.85535 17.6941 8.82109 17.61 8.80679C17.5259 8.79249 17.4396 8.79857 17.3584 8.82451C17.2771 8.85045 17.2033 8.89551 17.1431 8.95589L15.9378 10.1526C15.8735 10.2168 15.8267 10.2963 15.8019 10.3837C15.7771 10.471 15.775 10.5632 15.7959 10.6516L15.8995 11.0843C16.0776 11.8424 16.0306 12.6359 15.7641 13.3676C15.4976 14.0992 15.0233 14.7372 14.3993 15.2032C13.7753 15.6692 13.0289 15.9429 12.2515 15.9908C11.4741 16.0387 10.6997 15.8586 10.0232 15.4727L9.49205 15.1683C9.39054 15.1099 9.27255 15.0866 9.15645 15.1022C9.04034 15.1177 8.93262 15.1712 8.85007 15.2543L3.93061 20.1716C3.87691 20.2253 3.8353 20.2899 3.80856 20.3609C3.78182 20.432 3.77058 20.508 3.77558 20.5837C3.78058 20.6595 3.80171 20.7333 3.83755 20.8003C3.87339 20.8672 3.92312 20.9257 3.98341 20.9719L4.70824 21.5278C6.79851 23.1383 9.36515 24.008 12.0041 24C14.105 23.9973 16.1685 23.4437 17.9886 22.3944C19.8086 21.3452 21.3216 19.837 22.3764 18.0204C23.4312 16.2039 23.991 14.1424 23.9999 12.042C24.0088 9.94147 23.4664 7.8754 22.427 6.04998Z"
        fill="white" />
    <path
        d="M19.2978 2.47324C17.2078 0.862183 14.6411 -0.00790158 12.002 5.40756e-05C9.90001 0.00168762 7.83527 0.55478 6.01407 1.60407C4.19286 2.65336 2.67896 4.1621 1.62362 5.97955C0.568279 7.797 0.00845997 9.85951 9.51359e-05 11.961C-0.0082697 14.0625 0.535112 16.1294 1.57595 17.9552L2.09368 18.8631C2.13445 18.9343 2.19107 18.9951 2.25914 19.0409C2.32721 19.0866 2.40491 19.1161 2.48622 19.127C2.56752 19.1379 2.65024 19.13 2.72798 19.1038C2.80571 19.0776 2.87637 19.0339 2.93447 18.976L4.12318 17.7875C4.20964 17.6999 4.2634 17.5853 4.27546 17.4628C4.28752 17.3403 4.25716 17.2174 4.18945 17.1146C3.75485 16.4515 3.40687 15.7355 3.15399 14.9841C2.68073 13.5798 2.54857 12.083 2.76844 10.6175C2.9883 9.15197 3.55387 7.75982 4.4184 6.55611C5.28293 5.3524 6.4216 4.37168 7.74027 3.69503C9.05895 3.01838 10.5198 2.66523 12.002 2.66476C13.5278 2.6613 15.0307 3.03545 16.3768 3.75383L14.3618 5.76736C13.3524 5.38488 12.2652 5.25315 11.1936 5.38349C10.1221 5.51383 9.0982 5.90235 8.20999 6.51565C7.32177 7.12895 6.59577 7.9487 6.09439 8.90445C5.59301 9.8602 5.33123 10.9234 5.33156 12.0026C5.33156 12.1134 5.36158 12.6186 5.3709 12.7055C5.45256 13.4701 5.66517 14.215 5.99943 14.9075C6.03644 14.9844 6.09134 15.0513 6.15954 15.1026C6.22774 15.154 6.30725 15.1882 6.39141 15.2025C6.47557 15.2168 6.56193 15.2107 6.64326 15.1848C6.72459 15.1589 6.79852 15.1138 6.85886 15.0534L8.06413 13.8474C8.12832 13.7834 8.17513 13.7041 8.20013 13.6169C8.22514 13.5298 8.22751 13.4377 8.20702 13.3494L8.10348 12.9157C7.92506 12.1576 7.97196 11.364 8.2384 10.6322C8.50485 9.90049 8.97925 9.26245 9.60333 8.79649C10.2274 8.33053 10.974 8.05693 11.7515 8.0093C12.5289 7.96166 13.3034 8.14206 13.9797 8.52834L14.5109 8.8327C14.6125 8.89064 14.7304 8.91361 14.8464 8.89808C14.9624 8.88256 15.07 8.8294 15.1529 8.74678L20.0713 3.8294C20.1251 3.77569 20.1668 3.71112 20.1936 3.64001C20.2204 3.5689 20.2318 3.49288 20.2269 3.41704C20.222 3.3412 20.2009 3.26727 20.1652 3.20021C20.1294 3.13314 20.0798 3.07447 20.0195 3.02812L19.2978 2.47324Z"
        fill="white" />
</svg>
    