<svg width="141" height="36" viewBox="0 0 141 36" fill="none" xmlns="http://www.w3.org/2000/svg">
    <path
        d="M33.6337 9.07305L32.8533 7.70992C32.7923 7.60322 32.7075 7.51203 32.6056 7.44342C32.5036 7.37481 32.3872 7.33064 32.2654 7.31434C32.1435 7.29804 32.0196 7.31005 31.9032 7.34944C31.7868 7.38882 31.681 7.45452 31.5941 7.54143L29.8116 9.32389C29.6804 9.45522 29.5987 9.62796 29.5804 9.81274C29.5622 9.99751 29.6085 10.1829 29.7115 10.3374C30.3628 11.3319 30.8844 12.4056 31.2634 13.5324C31.9716 15.6377 32.1687 17.8813 31.8386 20.0779C31.5085 22.2745 30.6606 24.361 29.3649 26.1652C28.0693 27.9694 26.363 29.4395 24.387 30.4542C22.411 31.4688 20.222 31.9988 18.0008 32.0005C15.7125 32.0069 13.4581 31.4472 11.4385 30.3713L14.46 27.3511C15.9733 27.924 17.603 28.121 19.2093 27.9252C20.8155 27.7294 22.3502 27.1467 23.6816 26.2271C25.013 25.3074 26.1013 24.0784 26.8531 22.6455C27.6048 21.2126 27.9975 19.6187 27.9975 18.0005C27.9968 17.6548 27.9778 17.3093 27.9405 16.9655C27.822 15.8115 27.503 14.687 26.998 13.6426C26.9415 13.5291 26.859 13.4307 26.7572 13.3553C26.6554 13.2799 26.5371 13.2297 26.4122 13.2088C26.2872 13.1879 26.1591 13.1969 26.0383 13.2351C25.9175 13.2733 25.8074 13.3396 25.7172 13.4285L23.9081 15.2375C23.8118 15.3336 23.7415 15.4527 23.7041 15.5835C23.6666 15.7143 23.6631 15.8525 23.694 15.985L23.846 16.6349C24.1133 17.7717 24.0429 18.9619 23.6434 20.0593C23.2439 21.1567 22.5326 22.1135 21.5969 22.8124C20.6613 23.5113 19.5419 23.9218 18.3763 23.9935C17.2106 24.0652 16.0494 23.7951 15.0351 23.2161L14.2395 22.7601C14.0873 22.6723 13.9103 22.6371 13.736 22.66C13.5617 22.6829 13.3999 22.7626 13.2755 22.8868L5.89481 30.2585C5.8143 30.339 5.7519 30.4357 5.71178 30.5422C5.67167 30.6488 5.65476 30.7626 5.6622 30.8762C5.66964 30.9898 5.70124 31.1005 5.7549 31.2008C5.80856 31.3012 5.88304 31.389 5.97335 31.4583L7.06031 32.2918C10.1947 34.7076 14.0436 36.0121 18.0008 35.9999C27.9253 35.9999 36.0002 27.925 36.0002 18.0005C36.001 14.8696 35.1853 11.7925 33.6337 9.07305Z"
        fill="#29233B" />
    <path
        d="M28.9399 3.70814C25.8059 1.2926 21.9575 -0.0118971 18.0006 8.17684e-05C8.07489 8.17684e-05 2.7361e-07 8.07497 2.7361e-07 18.0007C-0.000545394 21.1316 0.815096 24.2086 2.36647 26.9282L3.14685 28.2913C3.20773 28.3993 3.29287 28.4916 3.39556 28.561C3.49825 28.6304 3.61566 28.6749 3.73853 28.6912C3.8614 28.7074 3.98636 28.6948 4.10353 28.6544C4.22071 28.6141 4.32689 28.547 4.4137 28.4585L6.19489 26.6774C6.32614 26.546 6.40784 26.3733 6.42609 26.1885C6.44433 26.0037 6.398 25.8183 6.29497 25.6639C5.64417 24.6691 5.12268 23.5954 4.74308 22.4689C4.03483 20.3639 3.83743 18.1206 4.16715 15.9242C4.49688 13.7279 5.34429 11.6414 6.63941 9.83719C7.93453 8.03293 9.64022 6.56259 11.6157 5.54756C13.5911 4.53252 15.7797 4.00191 18.0006 3.99952C20.2885 3.99321 22.5425 4.55289 24.5616 5.62869L21.5364 8.65012C20.0232 8.07688 18.3934 7.87962 16.7871 8.07526C15.1808 8.27091 13.646 8.85362 12.3146 9.77333C10.9832 10.693 9.89495 11.9222 9.14344 13.3553C8.39194 14.7884 7.9996 16.3825 8.00014 18.0007C8.00014 18.1667 8.04448 18.9242 8.05842 19.0547C8.18069 20.2016 8.49952 21.3188 9.00095 22.3574C9.05657 22.4726 9.13893 22.5728 9.24116 22.6497C9.34339 22.7265 9.46252 22.7778 9.58862 22.7993C9.71471 22.8207 9.84411 22.8117 9.96601 22.773C10.0879 22.7342 10.1988 22.6669 10.2893 22.5766L12.0984 20.7688C12.1951 20.6719 12.2655 20.552 12.3028 20.4202C12.34 20.2885 12.3429 20.1494 12.3112 20.0163L12.1617 19.3714C12.0567 18.9221 12.0031 18.4622 12.0021 18.0007C12.0021 16.9508 12.2778 15.9192 12.8018 15.0093C13.3257 14.0995 14.0794 13.3431 14.9874 12.816C15.8955 12.289 16.9261 12.0096 17.976 12.006C19.0259 12.0023 20.0584 12.2745 20.9701 12.7952L21.767 13.2513C21.9191 13.3388 22.0958 13.3738 22.2698 13.3509C22.4438 13.328 22.6055 13.2485 22.7298 13.1246L30.1054 5.74904C30.1859 5.66847 30.2483 5.57164 30.2884 5.46502C30.3286 5.3584 30.3455 5.24444 30.338 5.13076C30.3306 5.01709 30.299 4.90631 30.2453 4.80582C30.1917 4.70534 30.1172 4.61746 30.0268 4.54806L28.9399 3.70814Z"
        fill="#29233B" />
    <path
        d="M59.2595 22.9644C59.1248 22.8552 58.9557 22.7974 58.7824 22.8013C58.609 22.8052 58.4427 22.8707 58.3132 22.9859C57.1565 23.8841 55.8149 24.7152 53.8539 24.7152C50.2649 24.7152 47.3448 21.6912 47.3448 17.973C47.3448 14.2548 50.2522 11.2055 53.8272 11.2055C55.3842 11.2055 57.0564 11.8579 58.2903 12.9398C58.3593 13.021 58.4454 13.0859 58.5424 13.1297C58.6395 13.1735 58.7451 13.1952 58.8516 13.1932C58.9428 13.1854 59.0313 13.158 59.1109 13.1127C59.1905 13.0674 59.2594 13.0054 59.3127 12.931L60.4807 11.7287C60.5547 11.6563 60.6131 11.5694 60.6523 11.4736C60.6915 11.3777 60.7107 11.2749 60.7088 11.1713C60.7047 11.0662 60.6788 10.963 60.6328 10.8684C60.5868 10.7737 60.5216 10.6897 60.4415 10.6215C58.4145 8.84792 56.3609 8.05487 53.8006 8.05487C48.3355 8.05487 43.8888 12.5294 43.8888 18.0288C43.8908 20.6576 44.9355 23.1783 46.7937 25.0379C48.6519 26.8975 51.1718 27.9442 53.8006 27.9482C56.3723 27.9482 58.6818 27.0208 60.4807 25.2625C60.5581 25.1837 60.6188 25.0901 60.6593 24.9874C60.6998 24.8847 60.7192 24.7749 60.7164 24.6645C60.7154 24.5756 60.6962 24.4878 60.66 24.4065C60.6239 24.3252 60.5715 24.2522 60.5061 24.192L59.2595 22.9644Z"
        fill="#29233B" />
    <path
        d="M67.7559 8.32349H65.9823C65.7834 8.32902 65.5943 8.41119 65.4545 8.55283C65.3148 8.69447 65.2352 8.88463 65.2323 9.08359V26.9246C65.2368 27.1225 65.3171 27.311 65.4567 27.4513C65.5963 27.5916 65.7844 27.6729 65.9823 27.6784H67.7559C67.9538 27.6729 68.1421 27.5917 68.2819 27.4514C68.4217 27.3112 68.5023 27.1226 68.5071 26.9246V9.07726C68.5026 8.87919 68.4221 8.69044 68.2822 8.55011C68.1424 8.40979 67.9539 8.32864 67.7559 8.32349Z"
        fill="#29233B" />
    <path
        d="M88.6795 14.3334C88.6795 11.0219 85.9507 8.32349 82.5986 8.32349H75.3105C75.1106 8.32615 74.9199 8.40741 74.7795 8.54967C74.6392 8.69193 74.5605 8.88375 74.5605 9.08359V26.9246C74.5621 27.1234 74.6415 27.3136 74.7817 27.4545C74.9219 27.5954 75.1117 27.6757 75.3105 27.6784H77.0524C77.2501 27.6726 77.4381 27.5912 77.5776 27.451C77.7171 27.3108 77.7976 27.1224 77.8024 26.9246V20.2914H81.4585L84.955 27.3021C85.0183 27.4173 85.1115 27.5134 85.2247 27.5803C85.3379 27.6471 85.467 27.6823 85.5985 27.6822H87.6888C87.8209 27.6867 87.9518 27.6561 88.0681 27.5936C88.1845 27.5311 88.2823 27.4388 88.3514 27.3262C88.4187 27.2069 88.454 27.0723 88.454 26.9354C88.454 26.7984 88.4187 26.6638 88.3514 26.5446L84.8042 19.9291C87.2036 18.8586 88.6795 16.7379 88.6795 14.3334ZM85.411 14.3879C85.411 16.069 84.0251 17.4891 82.3845 17.4891H77.8556V11.4209H82.3833C84.0238 11.4209 85.4098 12.7803 85.4098 14.3879H85.411Z"
        fill="#29233B" />
    <path
        d="M107.719 22.9644C107.584 22.8552 107.415 22.7974 107.242 22.8013C107.069 22.8052 106.902 22.8707 106.773 22.9859C105.616 23.8841 104.274 24.7152 102.313 24.7152C98.7244 24.7152 95.8043 21.6912 95.8043 17.973C95.8043 14.2548 98.718 11.2055 102.287 11.2055C103.842 11.2055 105.516 11.8579 106.75 12.9398C106.819 13.0211 106.905 13.086 107.002 13.1298C107.099 13.1737 107.205 13.1953 107.311 13.1932C107.402 13.1854 107.491 13.158 107.57 13.1127C107.65 13.0674 107.719 13.0054 107.772 12.931L108.94 11.7287C109.014 11.6561 109.072 11.5693 109.111 11.4734C109.15 11.3776 109.169 11.2748 109.167 11.1713C109.163 11.0663 109.137 10.9631 109.092 10.8685C109.046 10.7739 108.981 10.6898 108.901 10.6215C106.874 8.84792 104.82 8.05487 102.26 8.05487C96.7937 8.0536 92.3534 12.5281 92.3534 18.0275C92.3554 20.6566 93.4003 23.1775 95.2587 25.0371C97.1172 26.8968 99.6374 27.9432 102.266 27.9469C104.837 27.9469 107.146 27.0196 108.947 25.2612C109.024 25.1822 109.085 25.0884 109.125 24.9855C109.166 24.8826 109.185 24.7725 109.182 24.662C109.181 24.5733 109.161 24.4858 109.125 24.4048C109.089 24.3238 109.037 24.251 108.972 24.1907L107.719 22.9644Z"
        fill="#29233B" />
    <path
        d="M123.984 24.6871H116.965V9.077C116.963 8.87804 116.883 8.68788 116.743 8.54624C116.603 8.4046 116.414 8.32243 116.215 8.31689H114.442C114.242 8.31956 114.051 8.40082 113.911 8.54308C113.771 8.68534 113.692 8.87715 113.692 9.077V26.9244C113.694 27.1231 113.773 27.3133 113.913 27.4542C114.053 27.5951 114.243 27.6755 114.442 27.6781H123.979C124.178 27.6758 124.368 27.5956 124.508 27.4546C124.649 27.3137 124.728 27.1233 124.73 26.9244V25.4409C124.728 25.2428 124.649 25.0531 124.51 24.9123C124.371 24.7715 124.182 24.6907 123.984 24.6871Z"
        fill="#29233B" />
    <path
        d="M139.87 11.3396C140.07 11.3369 140.26 11.2557 140.401 11.1134C140.541 10.9711 140.62 10.7793 140.62 10.5795V9.077C140.62 8.87715 140.541 8.68534 140.401 8.54308C140.26 8.40082 140.07 8.31956 139.87 8.31689H129.154C128.954 8.31956 128.763 8.40082 128.623 8.54308C128.482 8.68534 128.404 8.87715 128.404 9.077V26.9244C128.405 27.1231 128.485 27.3133 128.625 27.4542C128.765 27.5951 128.955 27.6755 129.154 27.6781H139.87C140.069 27.6755 140.258 27.5951 140.399 27.4542C140.539 27.3133 140.618 27.1231 140.62 26.9244V25.4409C140.618 25.2421 140.539 25.0519 140.399 24.911C140.258 24.7701 140.069 24.6897 139.87 24.6871H131.646V19.3739H138.556C138.756 19.3716 138.947 19.2905 139.088 19.1482C139.229 19.0059 139.307 18.8139 139.307 18.6138V17.1114C139.303 16.9133 139.222 16.7245 139.083 16.5842C138.943 16.4439 138.754 16.3627 138.556 16.3576H131.646V11.3396H139.87Z"
        fill="#29233B" />
</svg>
    