<svg width="24" height="24" viewBox="0 0 24 24" fill="none" xmlns="http://www.w3.org/2000/svg">
<path d="M22.427 6.04991L21.9093 5.14098C21.8687 5.06974 21.8121 5.00884 21.7441 4.96305C21.6761 4.91725 21.5984 4.88779 21.5171 4.87697C21.4358 4.86615 21.3531 4.87425 21.2755 4.90065C21.1978 4.92706 21.1273 4.97104 21.0695 5.02917L19.8787 6.21866C19.7917 6.30613 19.7375 6.421 19.7254 6.54382C19.7134 6.66663 19.7441 6.78984 19.8125 6.8926C20.2466 7.55596 20.5946 8.27188 20.8479 9.02312C21.3212 10.4274 21.4533 11.9242 21.2335 13.3897C21.0136 14.8552 20.448 16.2474 19.5835 17.4511C18.719 18.6548 17.5803 19.6355 16.2616 20.3122C14.943 20.9888 13.4821 21.342 11.9999 21.3424C10.4741 21.3466 8.97085 20.9736 7.62408 20.2565L9.63804 18.2419C10.886 18.7138 12.2469 18.8007 13.5447 18.4912C14.8426 18.1817 16.0177 17.4902 16.9183 16.5059C17.8189 15.5217 18.4036 14.29 18.5966 12.9701C18.7897 11.6502 18.5824 10.3027 18.0014 9.10179C17.9646 9.0249 17.9098 8.95797 17.8417 8.90663C17.7735 8.85529 17.6941 8.82103 17.61 8.80673C17.5259 8.79243 17.4396 8.7985 17.3584 8.82445C17.2771 8.85039 17.2033 8.89544 17.143 8.95583L15.9378 10.1526C15.8735 10.2167 15.8267 10.2963 15.8019 10.3836C15.7771 10.4709 15.775 10.5632 15.7959 10.6515L15.8995 11.0843C16.0776 11.8423 16.0306 12.6358 15.7641 13.3675C15.4976 14.0992 15.0233 14.7372 14.3993 15.2031C13.7753 15.6691 13.0289 15.9429 12.2515 15.9907C11.4741 16.0386 10.6997 15.8585 10.0232 15.4726L9.49204 15.1683C9.39053 15.1098 9.27255 15.0866 9.15644 15.1021C9.04033 15.1176 8.93262 15.1711 8.85006 15.2542L3.9306 20.1716C3.8769 20.2253 3.83529 20.2898 3.80855 20.3609C3.78182 20.432 3.77057 20.5079 3.77557 20.5837C3.78057 20.6594 3.8017 20.7333 3.83754 20.8002C3.87339 20.8671 3.92312 20.9257 3.98341 20.9718L4.70823 21.5278C6.7985 23.1382 9.36515 24.0079 12.0041 23.9999C14.105 23.9972 16.1685 23.4436 17.9886 22.3944C19.8086 21.3451 21.3216 19.8369 22.3764 18.0204C23.4312 16.2038 23.991 14.1424 23.9999 12.0419C24.0088 9.94141 23.4664 7.87533 22.427 6.04991Z" fill="white"/>
<path d="M19.2978 2.47324C17.2078 0.862183 14.6411 -0.00790158 12.002 5.40756e-05C9.90001 0.00168762 7.83527 0.55478 6.01407 1.60407C4.19286 2.65336 2.67896 4.1621 1.62362 5.97955C0.568279 7.797 0.00845997 9.85951 9.51359e-05 11.961C-0.0082697 14.0625 0.535112 16.1294 1.57595 17.9552L2.09368 18.8631C2.13445 18.9343 2.19107 18.9951 2.25914 19.0409C2.32721 19.0866 2.40491 19.1161 2.48622 19.127C2.56752 19.1379 2.65024 19.13 2.72798 19.1038C2.80571 19.0776 2.87637 19.0339 2.93447 18.976L4.12318 17.7875C4.20964 17.6999 4.2634 17.5853 4.27546 17.4628C4.28752 17.3403 4.25716 17.2174 4.18945 17.1146C3.75485 16.4515 3.40687 15.7355 3.15399 14.9841C2.68073 13.5798 2.54857 12.083 2.76844 10.6175C2.9883 9.15197 3.55387 7.75982 4.4184 6.55611C5.28293 5.3524 6.4216 4.37168 7.74027 3.69503C9.05895 3.01838 10.5198 2.66523 12.002 2.66476C13.5278 2.6613 15.0307 3.03545 16.3768 3.75383L14.3618 5.76736C13.3524 5.38488 12.2652 5.25315 11.1936 5.38349C10.1221 5.51383 9.0982 5.90235 8.20999 6.51565C7.32177 7.12895 6.59577 7.9487 6.09439 8.90445C5.59301 9.8602 5.33123 10.9234 5.33156 12.0026C5.33156 12.1134 5.36158 12.6186 5.3709 12.7055C5.45256 13.4701 5.66517 14.215 5.99943 14.9075C6.03644 14.9844 6.09134 15.0513 6.15954 15.1026C6.22774 15.154 6.30725 15.1882 6.39141 15.2025C6.47557 15.2168 6.56193 15.2107 6.64326 15.1848C6.72459 15.1589 6.79852 15.1138 6.85886 15.0534L8.06413 13.8474C8.12832 13.7834 8.17513 13.7041 8.20013 13.6169C8.22514 13.5298 8.22751 13.4377 8.20702 13.3494L8.10348 12.9157C7.92506 12.1576 7.97196 11.364 8.2384 10.6322C8.50485 9.90049 8.97925 9.26245 9.60333 8.79649C10.2274 8.33053 10.974 8.05693 11.7515 8.0093C12.5289 7.96166 13.3034 8.14206 13.9797 8.52834L14.5109 8.8327C14.6125 8.89064 14.7304 8.91361 14.8464 8.89808C14.9624 8.88256 15.07 8.8294 15.1529 8.74678L20.0713 3.8294C20.1251 3.77569 20.1668 3.71112 20.1936 3.64001C20.2204 3.5689 20.2318 3.49288 20.2269 3.41704C20.222 3.3412 20.2009 3.26727 20.1652 3.20021C20.1294 3.13314 20.0798 3.07447 20.0195 3.02812L19.2978 2.47324Z" fill="white"/>
</svg>
