<svg width="101" height="100" viewBox="0 0 101 100" fill="none" xmlns="http://www.w3.org/2000/svg">
<rect width="100" height="100" transform="translate(0.5)" fill="white" fill-opacity="0.01" style="mix-blend-mode:multiply"/>
<path d="M50.5 98.0001C50.3156 98.0001 50.1344 97.9532 49.9656 97.8657L9.34062 75.9907C8.97812 75.7938 8.75 75.4157 8.75 75.0001V25.0001C8.75 24.5876 8.97812 24.2063 9.34062 24.0095L49.9656 2.13447C50.3 1.95322 50.6969 1.95322 51.0344 2.13447L91.6594 24.0095C92.0219 24.2063 92.25 24.5876 92.25 25.0001V45.9001C94.0469 46.3938 95.375 48.0438 95.375 50.0001C95.375 51.9563 94.0469 53.6032 92.25 54.1001V75.0001C92.25 75.4157 92.0219 75.7938 91.6594 75.9907L51.0344 97.8657C50.8656 97.9563 50.6844 98.0001 50.5 98.0001ZM42.25 91.1563L50.5 95.597L58.75 91.1563V74.7907C53.5625 76.5251 47.4375 76.5251 42.25 74.7907V91.1563ZM61 73.922V89.9438L89.9969 74.3282V54.097C88.5562 53.7001 87.4219 52.5626 87.025 51.122H76.6C76.1687 61.3157 69.8656 70.0126 61 73.922ZM11 74.3282L40 89.9438V73.922C31.1312 70.0126 24.8312 61.3157 24.3969 51.1251H11V74.3282ZM26.65 51.1251C27.2375 63.7689 37.7125 73.8751 50.5 73.8751C63.6656 73.8751 74.375 63.1657 74.375 50.0001C74.375 40.822 69.1812 32.6001 61.0031 28.6063V50.0001C61.0031 55.7907 56.2906 60.5001 50.5031 60.5001C45.0937 60.5001 40.625 56.3876 40.0625 51.1251H26.65ZM42.325 51.1251C42.875 55.147 46.3312 58.2501 50.5 58.2501C54.6687 58.2501 58.1219 55.147 58.6719 51.1251H54.5969C54.1031 52.9251 52.4531 54.2501 50.4969 54.2501C48.5406 54.2501 46.8937 52.922 46.3969 51.1251H42.325ZM91.125 48.0001C90.0219 48.0001 89.125 48.897 89.125 50.0001C89.125 51.1032 90.0219 52.0001 91.125 52.0001C92.2281 52.0001 93.125 51.1032 93.125 50.0001C93.125 48.897 92.2281 48.0001 91.125 48.0001ZM50.5 48.0001C49.3969 48.0001 48.5 48.897 48.5 50.0001C48.5 51.1032 49.3969 52.0001 50.5 52.0001C51.6031 52.0001 52.5 51.1032 52.5 50.0001C52.5 48.897 51.6031 48.0001 50.5 48.0001ZM76.6031 48.8751H87.0281C87.425 47.4345 88.5594 46.297 90 45.9001V25.672L50.5 4.40322L11 25.672V48.8751H24.4C24.8344 38.672 31.1344 29.7063 40.7031 25.8282C41.0469 25.6907 41.4437 25.7251 41.7531 25.9376C42.0625 26.1501 42.25 26.497 42.25 26.872V48.8751H46.4031C46.8969 47.0751 48.5469 45.7501 50.5031 45.7501C52.4594 45.7501 54.1062 47.0751 54.6031 48.8751H58.7531V26.872C58.7531 26.497 58.9406 26.1501 59.25 25.9407C59.5625 25.7282 59.9594 25.6907 60.3 25.8313C69.8656 29.7063 76.1687 38.672 76.6031 48.8751ZM26.65 48.8751H40V28.6063C32.1562 32.4345 27.0562 40.1563 26.65 48.8751Z" fill="#9FA6AD"/>
</svg>
