<svg viewBox="0 0 25 24" fill="currentColor"
    xmlns="http://www.w3.org/2000/svg">
    <path
        d="M12.5 21.7032C10.2315 21.7032 8.29718 20.9186 6.697 19.3494C5.09681 17.7802 4.29672 15.8677 4.29672 13.6119C4.29672 12.5309 4.50587 11.4971 4.92417 10.5104C5.34247 9.52375 5.93858 8.65379 6.7125 7.90054L12.5 2.21301L18.2875 7.90054C19.0614 8.65379 19.6575 9.52375 20.0758 10.5104C20.4941 11.4971 20.7033 12.5309 20.7033 13.6119C20.7033 15.8677 19.9032 17.7802 18.303 19.3494C16.7028 20.9187 14.7685 21.7032 12.5 21.7032ZM12.5 19.4282C14.1427 19.4282 15.5415 18.8664 16.6962 17.7426C17.8509 16.6189 18.4282 15.2415 18.4282 13.6102C18.4282 12.8358 18.2792 12.0985 17.9812 11.3982C17.6832 10.6979 17.2546 10.084 16.6952 9.55641L12.5 5.40161L8.3048 9.55641C7.74543 10.084 7.31675 10.6979 7.01875 11.3982C6.72075 12.0985 6.57175 12.8358 6.57175 13.6102C6.57175 15.2415 7.1491 16.6189 8.3038 17.7426C9.45851 18.8664 10.8572 19.4282 12.5 19.4282Z"
        fill="currentColor" />
</svg>