<svg width="101" height="100" viewBox="0 0 101 100" fill="none" xmlns="http://www.w3.org/2000/svg">
    <rect width="100" height="100" transform="translate(0.5)" fill="white" fill-opacity="0.01"
        style="mix-blend-mode:multiply" />
    <path
        d="M88.0001 98C86.0469 98 84.3969 96.6719 83.9001 94.875H54.5969C54.1032 96.6719 52.4532 98 50.4969 98C48.5407 98 46.8938 96.6719 46.3969 94.875H14.5626C7.91256 94.875 2.50006 89.4625 2.50006 82.8125C2.50006 76.1625 7.90944 70.75 14.5626 70.75H46.4001C46.8938 68.9531 48.5438 67.625 50.5001 67.625C52.4563 67.625 54.1032 68.9531 54.6001 70.75H86.4376C91.8469 70.75 96.2501 66.35 96.2501 60.9375C96.2501 55.525 91.8501 51.125 86.4376 51.125H54.6001C54.1063 52.925 52.4563 54.25 50.5001 54.25C48.5438 54.25 46.8969 52.9219 46.4001 51.125H14.5626C7.91256 51.125 2.50006 45.7156 2.50006 39.0625C2.50006 32.4094 7.91256 27 14.5626 27H46.4001C46.8938 25.2 48.5438 23.875 50.5001 23.875C52.4563 23.875 54.1032 25.2 54.6001 27H86.4376C91.8469 27 96.2501 22.5969 96.2501 17.1875C96.2501 11.7781 91.8501 7.375 86.4376 7.375H54.6001C54.1063 9.175 52.4563 10.5 50.5001 10.5C48.5438 10.5 46.8969 9.175 46.4001 7.375H3.62506V5.125H46.4001C46.8938 3.325 48.5438 2 50.5001 2C52.4563 2 54.1032 3.325 54.6001 5.125H86.4376C93.0876 5.125 98.5001 10.5344 98.5001 17.1875C98.5001 23.8406 93.0876 29.25 86.4376 29.25H54.6001C54.1063 31.05 52.4563 32.375 50.5001 32.375C48.5438 32.375 46.8969 31.05 46.4001 29.25H14.5626C9.15319 29.25 4.75006 33.6531 4.75006 39.0625C4.75006 44.4719 9.15319 48.875 14.5626 48.875H46.4001C46.8938 47.075 48.5438 45.75 50.5001 45.75C52.4563 45.75 54.1032 47.075 54.6001 48.875H86.4376C93.0876 48.875 98.5001 54.2875 98.5001 60.9375C98.5001 67.5875 93.0876 73 86.4376 73H54.6001C54.1063 74.7969 52.4563 76.125 50.5001 76.125C48.5438 76.125 46.8969 74.7969 46.4001 73H14.5626C9.15319 73 4.75006 77.4 4.75006 82.8125C4.75006 88.225 9.15319 92.625 14.5626 92.625H46.4001C46.8938 90.8281 48.5438 89.5 50.5001 89.5C52.4563 89.5 54.1032 90.8281 54.6001 92.625H83.9032C84.3969 90.8281 86.0501 89.5 88.0032 89.5C90.3469 89.5 92.2532 91.4062 92.2532 93.75C92.2532 96.0937 90.3438 98 88.0001 98ZM88.0001 91.75C86.8969 91.75 86.0001 92.6469 86.0001 93.75C86.0001 94.8531 86.8969 95.75 88.0001 95.75C89.1032 95.75 90.0001 94.8531 90.0001 93.75C90.0001 92.6469 89.1032 91.75 88.0001 91.75ZM50.5001 91.75C49.3969 91.75 48.5001 92.6469 48.5001 93.75C48.5001 94.8531 49.3969 95.75 50.5001 95.75C51.6032 95.75 52.5001 94.8531 52.5001 93.75C52.5001 92.6469 51.6032 91.75 50.5001 91.75ZM50.5001 69.875C49.3969 69.875 48.5001 70.7719 48.5001 71.875C48.5001 72.9781 49.3969 73.875 50.5001 73.875C51.6032 73.875 52.5001 72.9781 52.5001 71.875C52.5001 70.7719 51.6032 69.875 50.5001 69.875ZM50.5001 48C49.3969 48 48.5001 48.8969 48.5001 50C48.5001 51.1031 49.3969 52 50.5001 52C51.6032 52 52.5001 51.1031 52.5001 50C52.5001 48.8969 51.6032 48 50.5001 48ZM50.5001 26.125C49.3969 26.125 48.5001 27.0219 48.5001 28.125C48.5001 29.2281 49.3969 30.125 50.5001 30.125C51.6032 30.125 52.5001 29.2281 52.5001 28.125C52.5001 27.0219 51.6032 26.125 50.5001 26.125ZM50.5001 4.25C49.3969 4.25 48.5001 5.14687 48.5001 6.25C48.5001 7.35312 49.3969 8.25 50.5001 8.25C51.6032 8.25 52.5001 7.35312 52.5001 6.25C52.5001 5.14687 51.6032 4.25 50.5001 4.25Z"
        fill="#9FA6AD" />
</svg>