<svg width="101" height="100" viewBox="0 0 101 100" fill="none" xmlns="http://www.w3.org/2000/svg">
    <rect width="100" height="100" transform="translate(0.5)" fill="white" fill-opacity="0.01"
        style="mix-blend-mode:multiply" />
    <path
        d="M41.9062 85.1719L40.3187 83.5781L43.4563 80.4531C43.6344 80.275 43.8625 80.1625 44.1094 80.1313L66.9844 77.2719C68.1094 77.1312 69.1688 76.6156 69.9656 75.8156L89.0344 56.7438C90.3187 55.4625 90.3187 53.3719 89.0344 52.0844C87.7906 50.8406 85.6156 50.8438 84.3781 52.0844L64.8875 67.9313C63.575 69.1375 61.8281 69.8719 59.9094 69.8719H44.2812V67.625H59.9094C61.1375 67.625 62.2625 67.1906 63.1469 66.4719L63.1375 66.4594L63.425 66.225C64.4094 65.2906 65.0281 63.9688 65.0281 62.5094C65.0281 61.4031 64.1312 60.5031 63.0281 60.5031H38.8094C30.6406 60.5031 23.9375 66.8875 23.5438 75.0375C23.5313 75.3156 23.4125 75.5813 23.2156 75.7781L13.7938 85.1719L12.2031 83.5781L21.3219 74.4875C21.9875 65.3469 29.5844 58.25 38.8063 58.25H63.025C65.3688 58.25 67.275 60.1562 67.275 62.5C67.275 62.7063 67.2656 62.9125 67.2469 63.1125L82.8687 50.4188C84.7812 48.4781 88.525 48.4 90.6219 50.4938C92.7813 52.6563 92.7813 56.175 90.6219 58.3375L71.5531 77.4063C70.4031 78.5563 68.8781 79.3031 67.2563 79.5062L44.7656 82.3156L41.9062 85.1719ZM69.25 48C66.9063 48 65 46.0938 65 43.75C65 41.4063 66.9063 39.5 69.25 39.5C71.5938 39.5 73.5 41.4063 73.5 43.75C73.5 46.0938 71.5938 48 69.25 48ZM69.25 41.75C68.1469 41.75 67.25 42.6469 67.25 43.75C67.25 44.8531 68.1469 45.75 69.25 45.75C70.3531 45.75 71.25 44.8531 71.25 43.75C71.25 42.6469 70.3531 41.75 69.25 41.75ZM50.5 48C48.1562 48 46.25 46.0938 46.25 43.75C46.25 41.4063 48.1562 39.5 50.5 39.5C52.8438 39.5 54.75 41.4063 54.75 43.75C54.75 46.0938 52.8438 48 50.5 48ZM50.5 41.75C49.3969 41.75 48.5 42.6469 48.5 43.75C48.5 44.8531 49.3969 45.75 50.5 45.75C51.6031 45.75 52.5 44.8531 52.5 43.75C52.5 42.6469 51.6031 41.75 50.5 41.75ZM31.75 48C29.4062 48 27.5 46.0938 27.5 43.75C27.5 41.4063 29.4062 39.5 31.75 39.5C34.0938 39.5 36 41.4063 36 43.75C36 46.0938 34.0938 48 31.75 48ZM31.75 41.75C30.6469 41.75 29.75 42.6469 29.75 43.75C29.75 44.8531 30.6469 45.75 31.75 45.75C32.8531 45.75 33.75 44.8531 33.75 43.75C33.75 42.6469 32.8531 41.75 31.75 41.75ZM59.875 35.5C57.5312 35.5 55.625 33.5938 55.625 31.25C55.625 28.9062 57.5312 27 59.875 27C62.2188 27 64.125 28.9062 64.125 31.25C64.125 33.5938 62.2188 35.5 59.875 35.5ZM59.875 29.25C58.7719 29.25 57.875 30.1469 57.875 31.25C57.875 32.3531 58.7719 33.25 59.875 33.25C60.9781 33.25 61.875 32.3531 61.875 31.25C61.875 30.1469 60.9781 29.25 59.875 29.25ZM41.125 35.5C38.7812 35.5 36.875 33.5938 36.875 31.25C36.875 28.9062 38.7812 27 41.125 27C43.4688 27 45.375 28.9062 45.375 31.25C45.375 33.5938 43.4688 35.5 41.125 35.5ZM41.125 29.25C40.0219 29.25 39.125 30.1469 39.125 31.25C39.125 32.3531 40.0219 33.25 41.125 33.25C42.2281 33.25 43.125 32.3531 43.125 31.25C43.125 30.1469 42.2281 29.25 41.125 29.25ZM50.5 23C48.1562 23 46.25 21.0938 46.25 18.75C46.25 16.4063 48.1562 14.5 50.5 14.5C52.8438 14.5 54.75 16.4063 54.75 18.75C54.75 21.0938 52.8438 23 50.5 23ZM50.5 16.75C49.3969 16.75 48.5 17.6469 48.5 18.75C48.5 19.8531 49.3969 20.75 50.5 20.75C51.6031 20.75 52.5 19.8531 52.5 18.75C52.5 17.6469 51.6031 16.75 50.5 16.75Z"
        fill="#9FA6AD" />
</svg>
    