<svg width="16" height="16" viewBox="0 0 30 30" fill="none" xmlns="http://www.w3.org/2000/svg">
  <path
    d="M15 30C23.3125 30 30 23.3125 30 15C30 6.68745 23.3125 0 15 0C6.68745 0 0 6.68745 0 15C0 23.3125 6.68745 30 15 30Z"
    fill="#2775CA"/>
  <path fill-rule="evenodd" clip-rule="evenodd"
        d="m 6.3008974,11.623841 c -1.8126,4.8126 0.68745,10.2501 5.5624496,12 0.1875,0.1251 0.375,0.375 0.375,0.5625 v 0.8751 c 0,0.125 0,0.1875 -0.06255,0.2499 -0.0624,0.2501 -0.31245,0.375 -0.5625,0.2501 -3.4999496,-1.125 -6.1874996,-3.8126 -7.3124996,-7.3125 -1.875002,-5.9375 1.37505,-12.2501004 7.3124996,-14.1251004 0.06255,-0.0624 0.1875,-0.0624 0.25005,-0.0624 0.25005,0.0624 0.375,0.2499 0.375,0.49995 v 0.87495 c 0,0.3126 -0.12495,0.5001 -0.375,0.62505 -2.5624496,0.9375 -4.6249496,2.93745 -5.5624496,5.5624504 z M 17.925847,4.3738906 c 0.0624,-0.25005 0.3125,-0.375 0.5625,-0.25005 3.4374,1.125 6.1875,3.81255 7.3125,7.3750504 1.875,5.93745 -1.375,12.25005 -7.3125,14.12505 -0.0625,0.0624 -0.1875,0.0624 -0.25,0.0624 -0.2501,-0.0624 -0.375,-0.2499 -0.375,-0.4999 v -0.875 c 0,-0.3126 0.1249,-0.5001 0.375,-0.625 2.5624,-0.9375 4.6249,-2.9375 5.5624,-5.5625 1.8126,-4.8126 -0.6874,-10.2501004 -5.5624,-12.0000004 -0.1875,-0.1251 -0.375,-0.375 -0.375,-0.62505 v -0.87495 c 0,-0.1251 0,-0.1875 0.0625,-0.25005 z"
        fill="#ffffff"/>
  <path
    d="m 19.294441,16.985169 c 0,-2.18745 -1.3125,-2.93745 -3.9375,-3.2499 -1.875,-0.25005 -2.25,-0.75 -2.25,-1.6251 0,-0.8751 0.62505,-1.43745 1.875,-1.43745 1.125,0 1.75005,0.375 2.0625,1.3125 0.06255,0.1875 0.25005,0.31245 0.43755,0.31245 h 0.9999 c 0.25005,0 0.43755,-0.1875 0.43755,-0.4374 v -0.06255 c -0.25005,-1.37505 -1.37505,-2.4374995 -2.8125,-2.5624495 v -1.5 c 0,-0.25005 -0.1875,-0.43755 -0.49995,-0.5001 h -0.9375 c -0.25005,0 -0.43755,0.1875 -0.5001,0.5001 v 1.43745 c -1.875,0.25005 -3.0624,1.4999995 -3.0624,3.0625495 0,2.0625 1.24995,2.8749 3.87495,3.1875 1.75005,0.31245 2.31255,0.68745 2.31255,1.6875 0,1 -0.8751,1.6875 -2.0625,1.6875 -1.6251,0 -2.1876,-0.6876 -2.3751,-1.6251 -0.0624,-0.2499 -0.2499,-0.375 -0.4374,-0.375 h -1.0626 c -0.2499,0 -0.4374,0.1875 -0.4374,0.4375 v 0.0626 c 0.2499,1.5624 1.24995,2.6874 3.31245,3 v 1.5 c 0,0.2499 0.1875,0.4374 0.49995,0.4999 h 0.9375 c 0.25005,0 0.43755,-0.1874 0.5001,-0.4999 v -1.5 c 1.875,-0.3126 3.12495,-1.6251 3.12495,-3.3126 z"
    fill="#ffffff"/>
</svg>
